<svg version="1.2" xmlns="http://www.w3.org/2000/svg" viewBox="0 0 720 720" width="720" height="720">
	<defs>
		<radialGradient id="g1" cx="0" cy="0" r="1" gradientUnits="userSpaceOnUse" gradientTransform="matrix(470.375,0,0,470.375,462.091,500.953)">
			<stop offset="0" stop-color="#f5982b"/>
			<stop offset=".36" stop-color="#f9c31d"/>
			<stop offset=".65" stop-color="#fef8e3"/>
			<stop offset="1" stop-color="#fefefe"/>
		</radialGradient>
		<clipPath clipPathUnits="userSpaceOnUse" id="cp1">
			<path d="m341.56 158.98c111 0 201.02 90.02 201.02 201.02 0 111-90.02 201.02-201.02 201.02-111 0-201.02-90.02-201.02-201.02 0-111 90.02-201.02 201.02-201.02zm31.78 2.51q6.2 0.99 12.27 2.35l-13.76 36.98zm25.74 5.86q6.21 1.85 12.25 4.08l-19.02 35.66zm24.98 9.3q6.15 2.78 12.08 5.95l-24.38 33.75zm23.81 12.74q6.01 3.76 11.73 7.92l-29.79 31.09zm22.24 16.09q5.74 4.78 11.11 9.97l-35.1 27.58zm20.2 19.32q5.29 5.83 10.12 12.06l-40.06 23.08zm17.63 22.37q4.64 6.84 8.72 14.06l-44.38 17.56zm14.53 25.12q3.75 7.73 6.85 15.81l-47.71 11.14zm10.89 27.41q2.65 8.43 4.56 17.16l-49.74 4.01zm6.8 29.1q1.38 8.85 1.96 17.93l-50.24-3.45zm2.4 30.03q0.01 0.58 0.01 1.16-0.01 8.54-0.71 16.91l-49.24-10.88zm-2.07 30.12q-1.29 8.92-3.34 17.57l-46.75-17.87zm-6.53 29.39q-2.54 8.39-5.78 16.45l-42.93-24.06zm-10.77 27.85q-3.62 7.6-7.84 14.85l-38.07-29.22zm-14.58 25.62q-4.47 6.66-9.44 12.93l-32.54-33.21zm-17.83 22.84q-5.09 5.64-10.58 10.88l-26.69-36.07zm-20.49 19.71q-5.51 4.6-11.34 8.8l-20.75-37.9zm-22.59 16.34q-5.76 3.6-11.78 6.81l-14.94-38.88zm-24.15 12.86q-5.91 2.65-12.01 4.92l-9.35-39.17zm-25.27 9.31q-5.96 1.75-12.07 3.14l-4.03-38.93zm-25.94 5.79q-5.96 0.91-12.04 1.47l1.05-38.31zm-26.23 2.29q-2.27 0.05-4.55 0.05-3.73-0.01-7.42-0.15l5.98-37.45zm-26.19-1.11q-6-0.64-11.89-1.63l10.85-36.39zm-25.84-4.5q-5.96-1.44-11.79-3.23l15.76-35.03zm-25.16-7.88q-5.89-2.29-11.6-4.93l20.72-33.23zm-24.12-11.26q-5.77-3.17-11.3-6.69l25.74-30.9zm-22.71-14.55q-5.53-4.1-10.77-8.57l30.7-27.84zm-20.87-17.76q-5.18-5.05-9.99-10.46l35.47-23.98zm-18.58-20.8q-4.66-6-8.86-12.35l39.8-19.23zm-15.78-23.59q-3.93-6.89-7.32-14.11l43.4-13.58zm-12.48-26.03q-2.99-7.64-5.37-15.57l45.95-7.18zm-8.68-27.96q-1.89-8.17-3.09-16.58l47.21-0.28zm-4.52-29.24q-0.66-8.05-0.66-16.28 0-0.37 0.01-0.75l47.06 6.78zm-0.2-29.73q0.56-8.56 1.82-16.91l45.53 13.65zm4.15-29.45q1.79-8.23 4.23-16.2l42.67 19.99zm8.42-28.37q2.9-7.65 6.39-14.98l38.67 25.5zm12.38-26.56q3.83-6.86 8.17-13.38l33.85 30.01zm15.86-24.15q4.56-5.96 9.54-11.56l28.53 33.48zm18.8-21.31q5.1-5 10.53-9.64l22.98 35.97zm21.2-18.17q5.46-4.06 11.2-7.75l17.41 37.61zm23.09-14.82q5.71-3.14 11.64-5.91l11.93 38.53zm24.5-11.38q5.86-2.26 11.9-4.16l6.63 38.91zm25.47-7.89q5.96-1.42 12.05-2.48l1.48 38.85zm26.04-4.42q6.03-0.6 12.15-0.85l-3.58 38.48zm26.27-0.97q6.15 0.18 12.21 0.71l-8.62 37.88z"/>
		</clipPath>
		<clipPath clipPathUnits="userSpaceOnUse" id="cp2">
			<path d="m341.56 158.98c111 0 201.02 90.02 201.02 201.02 0 111-90.02 201.02-201.02 201.02-111 0-201.02-90.02-201.02-201.02 0-111 90.02-201.02 201.02-201.02zm31.78 2.51q6.2 0.99 12.27 2.35l-13.76 36.98zm25.74 5.86q6.21 1.85 12.25 4.08l-19.02 35.66zm24.98 9.3q6.15 2.78 12.08 5.95l-24.38 33.75zm23.81 12.74q6.01 3.76 11.73 7.92l-29.79 31.09zm22.24 16.09q5.74 4.78 11.11 9.97l-35.1 27.58zm20.2 19.32q5.29 5.83 10.12 12.06l-40.06 23.08zm17.63 22.37q4.64 6.84 8.72 14.06l-44.38 17.56zm14.53 25.12q3.75 7.73 6.85 15.81l-47.71 11.14zm10.89 27.41q2.65 8.43 4.56 17.16l-49.74 4.01zm6.8 29.1q1.38 8.85 1.96 17.93l-50.24-3.45zm2.4 30.03q0.01 0.58 0.01 1.16-0.01 8.54-0.71 16.91l-49.24-10.88zm-2.07 30.12q-1.29 8.92-3.34 17.57l-46.75-17.87zm-6.53 29.39q-2.54 8.39-5.78 16.45l-42.93-24.06zm-10.77 27.85q-3.62 7.6-7.84 14.85l-38.07-29.22zm-14.58 25.62q-4.47 6.66-9.44 12.93l-32.54-33.21zm-17.83 22.84q-5.09 5.64-10.58 10.88l-26.69-36.07zm-20.49 19.71q-5.51 4.6-11.34 8.8l-20.75-37.9zm-22.59 16.34q-5.76 3.6-11.78 6.81l-14.94-38.88zm-24.15 12.86q-5.91 2.65-12.01 4.92l-9.35-39.17zm-25.27 9.31q-5.96 1.75-12.07 3.14l-4.03-38.93zm-25.94 5.79q-5.96 0.91-12.04 1.47l1.05-38.31zm-26.23 2.29q-2.27 0.05-4.55 0.05-3.73-0.01-7.42-0.15l5.98-37.45zm-26.19-1.11q-6-0.64-11.89-1.63l10.85-36.39zm-25.84-4.5q-5.96-1.44-11.79-3.23l15.76-35.03zm-25.16-7.88q-5.89-2.29-11.6-4.93l20.72-33.23zm-24.12-11.26q-5.77-3.17-11.3-6.69l25.74-30.9zm-22.71-14.55q-5.53-4.1-10.77-8.57l30.7-27.84zm-20.87-17.76q-5.18-5.05-9.99-10.46l35.47-23.98zm-18.58-20.8q-4.66-6-8.86-12.35l39.8-19.23zm-15.78-23.59q-3.93-6.89-7.32-14.11l43.4-13.58zm-12.48-26.03q-2.99-7.64-5.37-15.57l45.95-7.18zm-8.68-27.96q-1.89-8.17-3.09-16.58l47.21-0.28zm-4.52-29.24q-0.66-8.05-0.66-16.28 0-0.37 0.01-0.75l47.06 6.78zm-0.2-29.73q0.56-8.56 1.82-16.91l45.53 13.65zm4.15-29.45q1.79-8.23 4.23-16.2l42.67 19.99zm8.42-28.37q2.9-7.65 6.39-14.98l38.67 25.5zm12.38-26.56q3.83-6.86 8.17-13.38l33.85 30.01zm15.86-24.15q4.56-5.96 9.54-11.56l28.53 33.48zm18.8-21.31q5.1-5 10.53-9.64l22.98 35.97zm21.2-18.17q5.46-4.06 11.2-7.75l17.41 37.61zm23.09-14.82q5.71-3.14 11.64-5.91l11.93 38.53zm24.5-11.38q5.86-2.26 11.9-4.16l6.63 38.91zm25.47-7.89q5.96-1.42 12.05-2.48l1.48 38.85zm26.04-4.42q6.03-0.6 12.15-0.85l-3.58 38.48zm26.27-0.97q6.15 0.18 12.21 0.71l-8.62 37.88z"/>
		</clipPath>
		<radialGradient id="g2" cx="0" cy="0" r="1" gradientUnits="userSpaceOnUse" gradientTransform="matrix(254.948,0,0,254.948,372.888,536.451)">
			<stop offset="0" stop-color="#fefefe"/>
			<stop offset=".58" stop-color="#f6bb21"/>
			<stop offset="1" stop-color="#f5982b"/>
		</radialGradient>
		<clipPath clipPathUnits="userSpaceOnUse" id="cp3">
			<path d="m413.08 297.19c34.29 4.56 68.17 20.04 98.23 41.98-12.38 187.81-145.34 234.06-264.86 172.37-7.43-18.42-11.61-38.58-11.99-59.89-1.66-94.09 74.14-168.35 178.62-154.46z"/>
		</clipPath>
		<clipPath clipPathUnits="userSpaceOnUse" id="cp4">
			<path d="m343 83.26l10.64 114.4 25.44-111.71-4.35 114.87 39.74-106.83-19.28 113.1 53.27-99.88-33.82 109.14 65.76-90.99-47.7 103.04 76.96-80.32-60.65 94.95 86.67-68.1-72.43 85.01 94.7-54.54-82.79 73.4 100.88-39.93-91.55 60.38 105.1-24.54-98.52 46.17 107.27-8.66-103.57 31.07 107.35 7.38-106.61 15.36 105.35 23.27-107.58-0.64 101.3 38.71-106.45-16.64 95.27 53.4-103.24-32.3 87.38 67.05-98.03-47.35 77.8 79.39-90.91-61.46 66.71 90.19-82.02-74.39 54.31 99.24-71.53-85.86 40.85 106.34-59.65-95.66 26.61 111.39-46.62-103.61 11.85 114.26-32.67-109.53-3.15 114.91-18.09-113.32-18.09 113.32-3.15-114.91-32.67 109.53 11.85-114.26-46.62 103.61 26.61-111.39-59.65 95.66 40.85-106.34-71.53 85.86 54.31-99.24-82.02 74.39 66.7-90.19-90.91 61.46 77.81-79.39-98.03 47.35 87.38-67.05-103.24 32.3 95.27-53.4-106.45 16.64 101.3-38.71-107.58 0.64 105.35-23.27-106.61-15.36 107.35-7.38-103.57-31.07 107.27 8.66-98.52-46.17 105.1 24.54-91.55-60.38 100.88 39.93-82.79-73.4 94.7 54.54-72.43-85.01 86.67 68.1-60.65-94.95 76.96 80.32-47.7-103.04 65.76 90.99-33.82-109.14 53.27 99.88-19.28-113.1 39.74 106.83-4.35-114.87 25.44 111.71z"/>
		</clipPath>
	</defs>
	<style>
		.s0 { fill: url(#g1) } 
		.s1 { fill: none } 
		.s2 { fill: url(#g2) } 
		.s3 { fill: none;stroke: #f9c31d;stroke-linecap: round;stroke-linejoin: round;stroke-width: 12.4 } 
		.s4 { fill: none;stroke: #f5982b;stroke-linecap: round;stroke-linejoin: round;stroke-width: 4.5 } 
		.s5 { fill: #a6a9ab } 
		.s6 { fill: none;stroke: #a6a9ab;stroke-miterlimit:2.6131;stroke-width: 1 } 
		.s7 { fill: #097e45 } 
		.s8 { fill: none;stroke: #097e45;stroke-miterlimit:2.6131;stroke-width: 1 } 
	</style>
	<g id="_Artboards_">
	</g>
	<g id="Layer 1">
		<path id="&lt;Compound Path&gt;" fill-rule="evenodd" class="s0" d="m341.6 159c111 0 201 90 201 201 0 111-90 201-201 201-111 0-201.1-90-201.1-201 0-111 90.1-201 201.1-201zm31.7 2.5q6.2 1 12.3 2.3l-13.8 37zm25.8 5.9q6.2 1.8 12.2 4.1l-19 35.6zm25 9.3q6.2 2.8 12.1 6l-24.4 33.7zm23.8 12.8q6 3.7 11.7 7.9l-29.8 31.1zm22.3 16.1q5.7 4.7 11.1 9.9l-35.1 27.6zm20.2 19.3q5.3 5.9 10.1 12.1l-40 23.1zm17.6 22.3q4.6 6.9 8.7 14.1l-44.4 17.6zm14.6 25.1q3.7 7.7 6.8 15.8l-47.7 11.1zm10.9 27.4q2.6 8.5 4.5 17.2l-49.7 4zm6.8 29.1q1.4 8.9 2 17.9l-50.3-3.4zm2.4 30q0 0.6 0 1.2 0 8.5-0.7 16.9l-49.2-10.9zm-2.1 30.1q-1.3 8.9-3.3 17.6l-46.8-17.9zm-6.5 29.4q-2.5 8.4-5.8 16.5l-42.9-24.1zm-10.8 27.9q-3.6 7.6-7.8 14.8l-38.1-29.2zm-14.6 25.6q-4.4 6.7-9.4 12.9l-32.6-33.2zm-17.8 22.9q-5.1 5.6-10.6 10.9l-26.6-36.1zm-20.5 19.7q-5.5 4.6-11.4 8.8l-20.7-37.9zm-22.6 16.3q-5.8 3.6-11.8 6.8l-14.9-38.8zm-24.2 12.8q-5.9 2.7-12 4.9l-9.4-39.1zm-25.2 9.3q-6 1.7-12.1 3.1l-4-38.9zm-26 5.8q-5.9 0.9-12 1.4l1.1-38.3zm-26.3 2.3q-2.2 0.1-4.5 0.1-3.8 0-7.5-0.2l6-37.4zm-26.2-1.1q-6-0.7-11.9-1.7l10.9-36.4zm-25.8-4.4q-6-1.5-11.8-3.3l15.7-35zm-25.1-7.9q-5.9-2.3-11.6-4.9l20.7-33.3zm-24.1-11.2q-5.8-3.2-11.3-6.7l25.7-30.9zm-22.7-14.6q-5.5-4.1-10.8-8.5l30.7-27.9zm-20.8-17.7q-5.2-5.1-10-10.5l35.4-24zm-18.5-20.8q-4.7-6-8.9-12.3l39.8-19.2zm-15.8-23.6q-3.9-6.9-7.3-14.1l43.4-13.6zm-12.5-26q-3-7.7-5.4-15.6l46-7.2zm-8.7-28q-1.9-8.1-3.1-16.5l47.2-0.3zm-4.5-29.3q-0.6-8-0.6-16.2 0-0.4 0-0.8l47 6.8zm-0.2-29.7q0.6-8.6 1.9-17l45.5 13.7zm4.1-29.4q1.8-8.3 4.3-16.3l42.6 20zm8.4-28.3q2.9-7.7 6.4-15l38.7 25.5zm12.4-26.6q3.8-6.8 8.2-13.4l33.8 30.1zm15.9-24.2q4.5-6 9.5-11.5l28.5 33.4zm18.8-21.3q5.1-5 10.6-9.6l22.9 35.9zm21.2-18.1q5.5-4.1 11.2-7.8l17.5 37.6zm23-14.8q5.8-3.1 11.7-5.9l11.9 38.5zm24.5-11.3q5.9-2.3 11.9-4.2l6.7 38.9zm25.4-7.9q6-1.4 12.1-2.5l1.4 38.9zm26.1-4.4q6-0.6 12.1-0.9l-3.5 38.5zm26.2-1q6.2 0.2 12.2 0.7l-8.6 37.9z"/>
		<g id="&lt;Clip Group&gt;" clip-path="url(#cp1)">
		</g>
		<path id="&lt;Compound Path&gt;" fill-rule="evenodd" class="s1" d="m341.6 159c111 0 201 90 201 201 0 111-90 201-201 201-111 0-201.1-90-201.1-201 0-111 90.1-201 201.1-201zm31.7 2.5q6.2 1 12.3 2.3l-13.8 37zm25.8 5.9q6.2 1.8 12.2 4.1l-19 35.6zm25 9.3q6.2 2.8 12.1 6l-24.4 33.7zm23.8 12.8q6 3.7 11.7 7.9l-29.8 31.1zm22.3 16.1q5.7 4.7 11.1 9.9l-35.1 27.6zm20.2 19.3q5.3 5.9 10.1 12.1l-40 23.1zm17.6 22.3q4.6 6.9 8.7 14.1l-44.4 17.6zm14.6 25.1q3.7 7.7 6.8 15.8l-47.7 11.1zm10.9 27.4q2.6 8.5 4.5 17.2l-49.7 4zm6.8 29.1q1.4 8.9 2 17.9l-50.3-3.4zm2.4 30q0 0.6 0 1.2 0 8.5-0.7 16.9l-49.2-10.9zm-2.1 30.1q-1.3 8.9-3.3 17.6l-46.8-17.9zm-6.5 29.4q-2.5 8.4-5.8 16.5l-42.9-24.1zm-10.8 27.9q-3.6 7.6-7.8 14.8l-38.1-29.2zm-14.6 25.6q-4.4 6.7-9.4 12.9l-32.6-33.2zm-17.8 22.9q-5.1 5.6-10.6 10.9l-26.6-36.1zm-20.5 19.7q-5.5 4.6-11.4 8.8l-20.7-37.9zm-22.6 16.3q-5.8 3.6-11.8 6.8l-14.9-38.8zm-24.2 12.8q-5.9 2.7-12 4.9l-9.4-39.1zm-25.2 9.3q-6 1.7-12.1 3.1l-4-38.9zm-26 5.8q-5.9 0.9-12 1.4l1.1-38.3zm-26.3 2.3q-2.2 0.1-4.5 0.1-3.8 0-7.5-0.2l6-37.4zm-26.2-1.1q-6-0.7-11.9-1.7l10.9-36.4zm-25.8-4.4q-6-1.5-11.8-3.3l15.7-35zm-25.1-7.9q-5.9-2.3-11.6-4.9l20.7-33.3zm-24.1-11.2q-5.8-3.2-11.3-6.7l25.7-30.9zm-22.7-14.6q-5.5-4.1-10.8-8.5l30.7-27.9zm-20.8-17.7q-5.2-5.1-10-10.5l35.4-24zm-18.5-20.8q-4.7-6-8.9-12.3l39.8-19.2zm-15.8-23.6q-3.9-6.9-7.3-14.1l43.4-13.6zm-12.5-26q-3-7.7-5.4-15.6l46-7.2zm-8.7-28q-1.9-8.1-3.1-16.5l47.2-0.3zm-4.5-29.3q-0.6-8-0.6-16.2 0-0.4 0-0.8l47 6.8zm-0.2-29.7q0.6-8.6 1.9-17l45.5 13.7zm4.1-29.4q1.8-8.3 4.3-16.3l42.6 20zm8.4-28.3q2.9-7.7 6.4-15l38.7 25.5zm12.4-26.6q3.8-6.8 8.2-13.4l33.8 30.1zm15.9-24.2q4.5-6 9.5-11.5l28.5 33.4zm18.8-21.3q5.1-5 10.6-9.6l22.9 35.9zm21.2-18.1q5.5-4.1 11.2-7.8l17.5 37.6zm23-14.8q5.8-3.1 11.7-5.9l11.9 38.5zm24.5-11.3q5.9-2.3 11.9-4.2l6.7 38.9zm25.4-7.9q6-1.4 12.1-2.5l1.4 38.9zm26.1-4.4q6-0.6 12.1-0.9l-3.5 38.5zm26.2-1q6.2 0.2 12.2 0.7l-8.6 37.9z"/>
		<g id="&lt;Clip Group&gt;" clip-path="url(#cp2)">
			<path id="&lt;Path&gt;" class="s2" d="m413.1 297.2c34.3 4.6 68.2 20 98.2 42-12.4 187.8-145.3 234-264.8 172.3-7.5-18.4-11.7-38.5-12-59.9-1.7-94 74.1-168.3 178.6-154.4z"/>
			<g id="&lt;Clip Group&gt;" clip-path="url(#cp3)">
			</g>
		</g>
		<path id="&lt;Compound Path&gt;" fill-rule="evenodd" class="s1" d="m341.6 159c111 0 201 90 201 201 0 111-90 201-201 201-111 0-201.1-90-201.1-201 0-111 90.1-201 201.1-201zm31.7 2.5q6.2 1 12.3 2.3l-13.8 37zm25.8 5.9q6.2 1.8 12.2 4.1l-19 35.6zm25 9.3q6.2 2.8 12.1 6l-24.4 33.7zm23.8 12.8q6 3.7 11.7 7.9l-29.8 31.1zm22.3 16.1q5.7 4.7 11.1 9.9l-35.1 27.6zm20.2 19.3q5.3 5.9 10.1 12.1l-40 23.1zm17.6 22.3q4.6 6.9 8.7 14.1l-44.4 17.6zm14.6 25.1q3.7 7.7 6.8 15.8l-47.7 11.1zm10.9 27.4q2.6 8.5 4.5 17.2l-49.7 4zm6.8 29.1q1.4 8.9 2 17.9l-50.3-3.4zm2.4 30q0 0.6 0 1.2 0 8.5-0.7 16.9l-49.2-10.9zm-2.1 30.1q-1.3 8.9-3.3 17.6l-46.8-17.9zm-6.5 29.4q-2.5 8.4-5.8 16.5l-42.9-24.1zm-10.8 27.9q-3.6 7.6-7.8 14.8l-38.1-29.2zm-14.6 25.6q-4.4 6.7-9.4 12.9l-32.6-33.2zm-17.8 22.9q-5.1 5.6-10.6 10.9l-26.6-36.1zm-20.5 19.7q-5.5 4.6-11.4 8.8l-20.7-37.9zm-22.6 16.3q-5.8 3.6-11.8 6.8l-14.9-38.8zm-24.2 12.8q-5.9 2.7-12 4.9l-9.4-39.1zm-25.2 9.3q-6 1.7-12.1 3.1l-4-38.9zm-26 5.8q-5.9 0.9-12 1.4l1.1-38.3zm-26.3 2.3q-2.2 0.1-4.5 0.1-3.8 0-7.5-0.2l6-37.4zm-26.2-1.1q-6-0.7-11.9-1.7l10.9-36.4zm-25.8-4.4q-6-1.5-11.8-3.3l15.7-35zm-25.1-7.9q-5.9-2.3-11.6-4.9l20.7-33.3zm-24.1-11.2q-5.8-3.2-11.3-6.7l25.7-30.9zm-22.7-14.6q-5.5-4.1-10.8-8.5l30.7-27.9zm-20.8-17.7q-5.2-5.1-10-10.5l35.4-24zm-18.5-20.8q-4.7-6-8.9-12.3l39.8-19.2zm-15.8-23.6q-3.9-6.9-7.3-14.1l43.4-13.6zm-12.5-26q-3-7.7-5.4-15.6l46-7.2zm-8.7-28q-1.9-8.1-3.1-16.5l47.2-0.3zm-4.5-29.3q-0.6-8-0.6-16.2 0-0.4 0-0.8l47 6.8zm-0.2-29.7q0.6-8.6 1.9-17l45.5 13.7zm4.1-29.4q1.8-8.3 4.3-16.3l42.6 20zm8.4-28.3q2.9-7.7 6.4-15l38.7 25.5zm12.4-26.6q3.8-6.8 8.2-13.4l33.8 30.1zm15.9-24.2q4.5-6 9.5-11.5l28.5 33.4zm18.8-21.3q5.1-5 10.6-9.6l22.9 35.9zm21.2-18.1q5.5-4.1 11.2-7.8l17.5 37.6zm23-14.8q5.8-3.1 11.7-5.9l11.9 38.5zm24.5-11.3q5.9-2.3 11.9-4.2l6.7 38.9zm25.4-7.9q6-1.4 12.1-2.5l1.4 38.9zm26.1-4.4q6-0.6 12.1-0.9l-3.5 38.5zm26.2-1q6.2 0.2 12.2 0.7l-8.6 37.9z"/>
		<g id="&lt;Clip Group&gt;" clip-path="url(#cp4)">
			<path id="&lt;Path&gt;" class="s3" d="m343 114.4l10 91.7 21.7-89.3-1.9 92.3 33-85.2-13.8 91.2 43.7-79.4-25.4 88.1 53.5-72-36.6 83.5 62.3-63.4-47 77.2 69.9-53.3-56.5 69.4 76.1-42.4-64.9 60.2 80.8-30.5-72.1 49.9 84-18.1-77.8 38.6 85.5-5.3-82 26.5 85.3 7.6-84.6 14 83.5 20.3-85.6 1.1 80.1 32.7-84.9-11.7 75.1 44.3-82.6-24.4 68.6 55.3-78.6-36.6 60.8 65-73.1-48 51.9 73.5-66.3-58.5 41.9 80.5-58.1-67.8 31.1 86-48.7-75.9 19.7 89.9-38.5-82.5 7.9 91.9-27.5-87.5-4 92.3-15.9-90.8-15.9 90.8-4-92.3-27.5 87.5 7.9-91.9-38.5 82.5 19.7-89.9-48.7 75.9 31.1-86-58.1 67.8 41.9-80.5-66.3 58.5 51.9-73.5-73.1 48 60.8-65-78.6 36.6 68.6-55.3-82.6 24.4 75.1-44.3-84.9 11.7 80.1-32.7-85.6-1.1 83.5-20.3-84.6-14 85.3-7.6-82-26.5 85.5 5.3-77.8-38.6 84 18.1-72.1-49.9 80.8 30.5-64.9-60.2 76.1 42.4-56.5-69.4 69.9 53.3-47-77.2 62.3 63.4-36.6-83.5 53.5 72-25.4-88.1 43.7 79.4-13.8-91.2 33 85.2-1.9-92.3 21.7 89.3z"/>
		</g>
		<path id="&lt;Path&gt;" class="s4" d="m343 83.3l10.6 114.4 25.5-111.8-4.4 114.9 39.8-106.8-19.3 113.1 53.3-99.9-33.9 109.1 65.8-90.9-47.7 103 77-80.3-60.7 94.9 86.7-68.1-72.4 85 94.7-54.5-82.8 73.4 100.8-39.9-91.5 60.3 105.1-24.5-98.5 46.2 107.2-8.7-103.5 31.1 107.3 7.4-106.6 15.3 105.4 23.3-107.6-0.6 101.3 38.7-106.5-16.7 95.3 53.4-103.2-32.3 87.3 67.1-98-47.4 77.8 79.4-90.9-61.4 66.7 90.2-82-74.4 54.3 99.2-71.5-85.9 40.8 106.4-59.6-95.7 26.6 111.4-46.6-103.6 11.8 114.3-32.7-109.6-3.1 114.9-18.1-113.3-18.1 113.3-3.1-114.9-32.7 109.6 11.8-114.3-46.6 103.6 26.6-111.4-59.6 95.7 40.8-106.4-71.5 85.9 54.3-99.2-82 74.4 66.7-90.2-90.9 61.4 77.8-79.4-98 47.4 87.3-67.1-103.2 32.3 95.3-53.4-106.5 16.7 101.3-38.7-107.6 0.6 105.4-23.3-106.6-15.3 107.3-7.4-103.5-31.1 107.2 8.7-98.5-46.2 105.1 24.5-91.5-60.3 100.8 39.9-82.8-73.4 94.8 54.5-72.5-85 86.7 68.1-60.7-94.9 77 80.3-47.7-103 65.8 90.9-33.9-109.1 53.3 99.9-19.3-113.1 39.8 106.8-4.4-114.9 25.5 111.8z"/>
		<path id="&lt;Compound Path&gt;" fill-rule="evenodd" class="s5" d="m163.6 293.2q-0.2 1-0.4 1.2-0.2 0.1-1-0.1-5.2-0.9-15-0.2-1.9 0.2-2-0.7-0.2-1 1.1-1.6 3.9-1.5 3.9-2.9 0-0.5-0.4-1.5-2.7-6.4-4.4-10.2-2.6 0.1-9 0.1-5.3 0-9-0.3-1.3 3.1-3.5 8.6-0.5 1.3-0.5 2.3 0 2 2.2 2.9 3.3 1.4 3.3 2.2-0.1 1.2-2.3 1-6.7-0.8-12.5 0.4-1.5 0.3-1.7-1.1-0.1-0.9 2.4-2 2.6-1.1 4.5-5.1 6.9-15.2 9-19.9 4.9-11.5 7-18.7 0.2-1.1 2.8-2.1 0.6-0.2 1.5 2.1 7.8 18.6 17.4 39.8 1.5 3.4 5.2 4.5 1.6 0.5 1.4 1.3zm-19.4-18.8q-2.4-5.4-7.4-16.7-0.3-0.6-0.6-0.6-0.4 0-0.6 0.6l-6.9 16.5q3.8 0.3 8.6 0.3 2.9 0 6.9-0.1z"/>
		<path id="&lt;Compound Path&gt;" fill-rule="evenodd" class="s5" d="m219 354.9q0 12.5-8.3 18.9-7.7 6-21.4 6-1.1 0-5.2-0.2-4-0.3-6.2-0.3-3 0-6.5 0.3-1.6 0.2-1.6-1.2 0-1 1.6-1.1 3.5-0.4 3.5-3.8v-34.4q0-1.9-0.8-2.6-0.7-0.5-2.8-1-1.9-0.3-2.3-0.6-0.4-0.2-0.4-1.1-0.1-0.8 0.7-1.1 0.2 0 1.6-0.1 7.7-0.5 20.4-0.5 12.4 0 19.9 5.9 7.8 6.2 7.8 16.9zm-7.5 1q0-20.8-21.4-20.8-5 0-5 0-3.9 0.3-3.9 2.2v33.2q0 3.5 1.8 4.7 1.9 1.2 7.5 1.2 21 0 21-20.5z"/>
		<path id="&lt;Path&gt;" class="s5" d="m260.1 455.8q-1 4.2-1.3 8.5 0 0.7-2.2 0.6-5.6-0.3-14.3-0.3-9.5 0-16.4 0.4-1.5 0.1-1.5-1.3 0-0.9 1.5-1 2.2-0.3 2.8-0.9 0.8-0.7 0.8-3v-33q0-3.3-0.7-4.2-0.6-0.9-3.3-1.7-1.5-0.5-1.1-1.8 0.2-0.6 0.6-0.7 0.3-0.1 1.9 0.1 2.3 0.4 11.9 0.4 9.7 0 16.6-0.4 2.4-0.2 2.4 0.3 0 0.2-0.1 0.3-0.8 3.5-0.7 8.1 0.1 1.1-1 1.1-1 0-1.4-1-1-2.5-1.8-3.4-1.1-1.3-3.3-1.7-1.7-0.3-12.1-0.3-1.2 0-1.5 0.4-0.1 0.2-0.1 1.1v14.9q0 0.9 1 0.9 3.3 0 9.5-0.4 1-0.1 1.5-1.1 0.4-0.7 0.9-2.9 0.3-1.6 1.6-1.2 1.2 0.3 1.1 1.2-1 4.8-0.7 12.6 0.1 0.9-1.2 1.1-1 0.1-1.2-1.2-0.4-2.8-0.9-3.6-0.6-0.9-2.1-1.1-3-0.4-8.9-0.4-0.6 0-0.6 0.5v15.7q0 3.3 3.8 4 1 0.2 6.7 0.2 8.9 0 11.2-6.2 0.5-1.5 1.7-1 1.2 0.3 0.9 1.3z"/>
		<path id="&lt;Compound Path&gt;" fill-rule="evenodd" class="s5" d="m209.6 274.4q0 10-6.6 15.1-6.1 4.8-17.1 4.8-0.9 0-4.2-0.2-3.2-0.1-5-0.1-2.3 0-5.2 0.2-1.2 0.1-1.2-1 0-0.8 1.2-0.9 2.8-0.3 2.8-3v-27.5q0-1.5-0.6-2.1-0.5-0.4-2.3-0.8-1.4-0.3-1.7-0.5-0.3-0.2-0.4-0.8-0.1-0.7 0.6-0.9 0.1-0.1 1.3-0.1 6.1-0.4 16.3-0.4 9.9 0 15.9 4.7 6.2 4.9 6.2 13.5zm-6 0.8q0-16.6-17.1-16.6-4 0-4 0-3.1 0.3-3.1 1.7v26.6q0 2.8 1.5 3.8 1.5 0.9 5.9 0.9 16.8 0 16.8-16.4z"/>
		<path id="&lt;Path&gt;" class="s5" d="m258.7 257.2q0 0.6-1.3 0.9-2.2 0.5-2.8 1-0.8 0.8-0.8 2.7v16.4q0 7.9-4.1 12.2-4.2 4.4-12.2 4.4-16.9 0-16.9-15.9v-17.2q0-2.7-3.2-3.3-1.1-0.2-1.3-0.4-0.3-0.1-0.3-0.7 0-0.9 0.5-1 0.2-0.1 1.3 0 7.7 0.4 11.8 0 0.8-0.1 1 0.1 0.2 0.1 0.2 0.9 0 0.6-1.2 0.9-2.4 0.5-2.8 0.8-0.9 0.6-0.9 2.3v16.6q0 7.3 3 10.7 3.1 3.4 9.8 3.4 11.5 0 11.5-13.3v-16.5q0.1-1.9-1-2.8-0.8-0.8-2.8-1.1-1.5-0.3-1.5-1.1 0-0.9 0.4-1 0.2-0.1 1.4 0 7.9 0.3 10.9 0 1.2-0.2 1.3 0.4 0 0.2 0 0.6z"/>
		<path id="&lt;Path&gt;" class="s5" d="m293.3 286.8q-0.9 3.7-0.9 6.9 0 0.5-1.9 0.4-4.5-0.2-11.2-0.2-7.1 0-12.6 0.3-0.9 0-1.1-0.1-0.2-0.2-0.2-0.9 0-0.8 1.3-0.9 2.8-0.3 2.8-3v-26.4q0-2-0.6-3-0.6-1.2-2.5-1.8-1.1-0.4-1-1.3 0.1-0.6 0.4-0.7 0.3-0.1 1.5 0 4.2 0.5 10-0.1 1 0 1.2 0 0.5 0.1 0.6 0.8 0.1 0.7-0.4 1-0.1 0.1-1.1 0.4-2 0.4-2.6 1-0.5 0.6-0.5 2.5v25.6q0 2.4 1.6 3.3 1.7 0.9 5.9 0.9 4.1 0 6.1-1 1.9-1.1 3.2-4 0.4-1.1 1.4-0.8 0.9 0.3 0.6 1.1z"/>
		<path id="&lt;Path&gt;" class="s5" d="m335.3 265.4q0 0.5-0.1 0.7-0.1 0.2-0.6 0.3-1 0.2-1.4-0.8-1.2-3.8-2.9-5.1-2.4-1.8-8.2-1.8-2.4 0-2.6 0.6-0.1 0.1-0.1 0.4v28.6q0 1.8 0.8 2.6 0.9 0.7 3.4 1.3 1.1 0.2 1.3 0.3 0.4 0.3 0.3 1.1-0.1 0.7-0.7 0.7 0 0.1-1.1-0.1-7.6-0.6-12.5 0-1.2 0.1-1.6 0-0.2-0.2-0.3-0.7-0.3-0.9 1-1.2 2.4-0.7 3.3-1.6 1-0.9 1-3.2v-27.8q0-0.8-1.1-0.9-0.1-0.1-1.6-0.1-5.5 0-8.1 1.9-1.9 1.4-3.4 5.2-0.5 1.2-1.4 0.8-1-0.3-0.7-1.1 1-3.1 1-8.7 0-0.7 1.7-0.6 6.2 0.4 13.7 0.4 14.3 0 18.5-0.6 1.6-0.2 1.7 0.6 0.8 3.8 0.7 8.8z"/>
		<path id="&lt;Compound Path&gt;" fill-rule="evenodd" class="s5" d="m266.5 378.8q-0.2 0.7-0.4 0.9-0.2 0.1-0.8-0.1-4.1-0.7-12-0.2-1.5 0.2-1.6-0.5-0.2-0.8 0.9-1.3 3.1-1.2 3.1-2.3 0-0.4-0.3-1.2-2.2-5.1-3.6-8.2-2 0.1-7.1 0.1-4.3 0-7.2-0.2-1 2.4-2.9 6.9-0.3 1-0.3 1.8-0.1 1.6 1.7 2.3 2.7 1.2 2.6 1.8 0 0.9-1.8 0.7-5.4-0.5-9.9 0.4-1.3 0.2-1.4-0.9-0.1-0.7 1.9-1.6 2.1-0.9 3.5-4.1 5.6-12.1 7.3-15.9 3.9-9.2 5.6-15 0.2-0.8 2.2-1.6 0.5-0.2 1.3 1.6 6.1 14.9 13.8 31.9 1.3 2.7 4.2 3.6 1.3 0.4 1.2 1.1zm-15.6-15.1q-1.9-4.3-5.9-13.4-0.2-0.5-0.5-0.5-0.3 0-0.5 0.5l-5.5 13.2q3.1 0.3 6.9 0.3 2.3 0 5.5-0.1z"/>
		<path id="&lt;Path&gt;" class="s5" d="m311.8 342.4q0 0.9-1.8 1.5-2.1 0.6-4.7 3.9-5 6.5-6.2 8.2-2.9 4-5.1 7.5v10.2q0 2 0.8 2.8 0.6 0.5 2.9 1.1 1.7 0.4 1.5 1.4-0.1 0.6-0.7 0.7 0 0-1.1-0.1-5.8-0.5-11.3 0-1.7 0.3-1.8-0.7-0.2-1 1-1.3 2.3-0.6 3-1.5 0.7-0.9 0.7-3.2v-7.8q-3.9-7.7-12.9-18.3-2.3-2.7-4.7-3.2-1.4-0.3-1.4-0.8 0-1.4 1.2-1.2 5.2 0.6 12.7-0.5 1-0.2 1.2-0.1 0.5 0.1 0.5 0.9 0 0.7-1.5 1.2-2.5 1-2.4 2 0 0.6 0.6 1.4 3.6 4.9 9.5 14 0.3 0.5 0.5 0.5 0.2 0 0.6-0.5 1.2-1.9 4.3-6.2 3-4.3 4.5-6.6 0.8-1 0.8-1.8 0-1.6-2.6-2.4-1.4-0.5-1.3-1.4 0.1-1 1.9-0.7 5.7 0.6 10.1 0.1 1.2-0.2 1.2 0.9z"/>
		<path id="&lt;Path&gt;" class="s5" d="m306.8 463.8q-0.1 1.2-1.2 1-5.2-0.8-11.8 0-1 0.1-1.2 0-0.4-0.2-0.4-1 0-0.7 1.4-1.2 1.4-0.4 1.4-1.6 0-0.7-0.4-1.3-4.1-5.4-8.3-11.3-5.9 7.1-7.6 10-0.7 1.2-0.7 2.2 0 1.4 1.7 2 1.2 0.5 1.2 1.4-0.1 1-1.8 0.8-5.3-0.7-10.1-0.2-0.8 0.1-1 0-0.2-0.2-0.2-0.8 0-1 1.7-1.6 2.7-0.8 5.2-3.9 1.2-1.4 10.2-12-3.6-5.2-5-7.1-2.9-4-5.2-6.7-2.1-2.5-5.3-3.2-1.4-0.4-1.4-0.9 0-1.2 1.2-1.1 5 0.5 11.8-0.6 1-0.1 1.2-0.1 0.5 0.2 0.5 1 0 0.7-1.4 1.2-1.6 0.6-1.6 1.6 0 0.7 0.8 1.8 4.6 6.3 7.3 10.4 6-7.2 7.2-9.5 0.6-1.2 0.6-2.2 0-1.4-1.6-2.1-1.3-0.5-1.2-1.3 0.1-1 1.8-0.8 5.6 0.7 10.1 0.1 1.2-0.1 1.2 0.9 0 1-1.9 1.7-2.9 1.1-5.1 3.8-5.6 6.9-9.5 11.6 6 8.9 10.9 14.5 2.6 2.9 5.2 3.6 1.4 0.3 1.3 0.9z"/>
		<path id="&lt;Compound Path&gt;" fill-rule="evenodd" class="s5" d="m342.3 437.5q0 5.4-4.4 8.6-4.3 2.9-11.1 2.9-0.5 0-1.8-0.1-1.3 0-1.4 0-0.3 0-0.3 0.8v10.3q0 1.3 0.6 1.8 0.5 0.3 3 0.8 1.5 0.3 1.5 1.1 0 0.7-0.2 0.9-0.3 0.2-1.4 0.1-5.2-0.2-11.4 0.2-1.2 0.1-1.2-1 0-0.7 1.2-0.8 2.8-0.3 2.9-3.1v-27.5q-0.1-2.7-3.2-3.3-1.6-0.3-1.6-1 0-0.9 0.4-1.1 0.3-0.1 1.3 0.1 1.4 0.2 3.9 0.2 1.2 0 4.5-0.1 3.3-0.1 5.3-0.1 6.1 0 9.7 2.6 3.7 2.7 3.7 7.7zm-5.6 0.6q0-5-2.3-7-2.2-1.9-7.5-1.9-2.1 0-2.9 0.6-0.7 0.6-0.7 2.5v13.7q0 0.8 3.8 0.8 4.4 0 7-2.2 2.6-2.3 2.6-6.5z"/>
		<path id="&lt;Path&gt;" class="s5" d="m377.8 457.5q-0.8 3.4-1 6.9-0.1 0.6-1.8 0.5-4.5-0.3-11.4-0.3-7.6 0-13.1 0.3-1.2 0.1-1.2-1 0-0.7 1.2-0.8 1.7-0.2 2.2-0.7 0.6-0.6 0.6-2.4v-26.4q0-2.7-0.5-3.4-0.5-0.7-2.7-1.4-1.2-0.3-0.8-1.4 0.1-0.5 0.4-0.6 0.3 0 1.5 0.2 1.9 0.2 9.6 0.2 7.7 0 13.3-0.3 1.8-0.1 1.8 0.3 0 0.1 0 0.2-0.6 2.9-0.5 6.5 0 0.9-0.9 0.9-0.8 0-1.1-0.8-0.8-2-1.4-2.7-0.9-1.1-2.6-1.4-1.4-0.2-9.7-0.2-1 0-1.2 0.3-0.2 0.1-0.2 0.8v12q0 0.7 0.9 0.7 2.6 0 7.5-0.4 0.9 0 1.3-0.8 0.3-0.6 0.7-2.4 0.2-1.2 1.3-0.9 1 0.2 0.8 0.9-0.8 3.9-0.5 10.2 0 0.7-0.9 0.8-0.9 0.1-1-0.9-0.3-2.2-0.8-2.9-0.4-0.7-1.6-0.9-2.4-0.3-7.1-0.3-0.6 0-0.6 0.4v12.5q0 2.7 3.1 3.3 0.8 0.1 5.4 0.1 7.1 0 8.9-4.9 0.4-1.2 1.4-0.8 0.9 0.2 0.7 1z"/>
		<path id="&lt;Compound Path&gt;" fill-rule="evenodd" class="s5" d="m418.9 464.8q0 0.6-1.1 0.6-10.3 0-19.4-17.6-3.6 0.2-3.8 0.2v12q0 1.3 0.7 1.8 0.6 0.4 2.9 0.8 1.6 0.2 1.6 1.1 0 0.7-0.3 0.9-0.2 0.2-1.4 0.1-5.2-0.2-11.3 0.2-1.3 0.1-1.3-1 0-0.7 1.3-0.8 2.8-0.3 2.8-3.1v-27.5q0-2.7-3.2-3.3-1.6-0.3-1.6-1 0-1.1 1.1-1.1 0.3 0 0.7 0.1 1.1 0.2 3.5 0.2 0.9 0 4.1-0.1 3.2-0.1 6-0.1 5.7 0 9.1 2.1 3.7 2.4 3.7 7.1 0 7.9-9.2 10.4 2.9 6.7 6.9 11.5 4 4.8 7.3 5.3 0.9 0.2 0.9 1.2zm-11.5-27.8q0-4.2-2.2-6-2.2-1.8-6.9-1.8-2.2 0-2.9 0.6-0.8 0.6-0.8 2.5v13.5q7-0.2 10-2.4 2.8-2.1 2.8-6.4z"/>
		<path id="&lt;Path&gt;" class="s5" d="m438.7 427.6q0 0.7-1.6 1.2-3.4 1-3.4 2.7v27.9q0 2.7 3.2 3.2 1.5 0.3 1.5 1.2 0 0.7-0.2 0.8-0.3 0.2-1.5 0.2-7.6-0.4-11.7 0-1.1 0-1.2-0.4-0.1-0.2-0.1-0.6 0-0.6 1.3-0.9 2.4-0.5 2.8-0.8 0.9-0.5 0.9-2.3v-28.1q0-2.4-3.2-3-1.4-0.2-1.4-0.8 0-0.8 0.3-1 0.2-0.2 1-0.1 5.6 0.6 11.5-0.1 1.1-0.2 1.3-0.1 0.5 0.1 0.5 1z"/>
		<path id="&lt;Path&gt;" class="s5" d="m475.5 457.5q-0.8 3.4-1 6.9-0.1 0.6-1.8 0.5-4.4-0.3-11.4-0.3-7.6 0-13.1 0.3-1.2 0.1-1.2-1 0-0.7 1.2-0.8 1.7-0.2 2.2-0.7 0.6-0.6 0.6-2.4v-26.4q0-2.7-0.5-3.4-0.5-0.7-2.7-1.4-1.1-0.3-0.8-1.4 0.1-0.5 0.4-0.6 0.3 0 1.5 0.2 1.9 0.2 9.6 0.2 7.7 0 13.3-0.3 1.9-0.1 1.9 0.3 0 0.1-0.1 0.2-0.6 2.9-0.5 6.5 0 0.9-0.8 0.9-0.9 0-1.2-0.8-0.8-2-1.4-2.7-0.9-1.1-2.6-1.4-1.4-0.2-9.7-0.2-0.9 0-1.2 0.3-0.1 0.1-0.1 0.8v12q0 0.7 0.8 0.7 2.6 0 7.6-0.4 0.8 0 1.2-0.8 0.3-0.6 0.7-2.4 0.2-1.2 1.3-0.9 1 0.2 0.8 0.9-0.7 3.9-0.5 10.2 0.1 0.7-0.9 0.8-0.9 0.1-1-0.9-0.3-2.2-0.7-2.9-0.5-0.7-1.7-0.9-2.4-0.3-7.1-0.3-0.5 0-0.5 0.4v12.5q0 2.7 3.1 3.3 0.7 0.1 5.3 0.1 7.1 0 8.9-4.9 0.5-1.2 1.4-0.8 0.9 0.2 0.7 1z"/>
		<path id="&lt;Path&gt;" class="s5" d="m526.2 427.6q0 0.7-1.5 1.1-3.5 1-3.5 4v20.6q0 6.5 0.2 10.5 0.1 1.5-0.7 1.7-1.3 0.3-2.2-1.3-1.4-2.7-11.2-13.4-8.2-8.9-15.9-16.7-0.3-0.2-0.5-0.1-0.3 0.1-0.3 0.6v23.5q0 3.8 3.8 4.5 1.6 0.3 1.6 1.2 0 1-1.8 1-6.8-0.3-10.6 0-1.2 0-1.2-1 0-0.7 1.2-0.9 2.2-0.5 2.9-1.4 0.8-0.9 0.8-3v-25.4q0-1.6-0.7-2.5-0.7-0.8-2.5-1.7-1.4-0.6-1.4-1.3 0.1-0.8 1.3-0.6 3.7 0.5 6.4 0.2 1.4-0.2 2.6 1l24 25.6q0.5 0.6 0.6 0.6 0.3 0 0.3-0.8v-20.7q0-3.6-3.8-4.3-1.4-0.2-1.4-0.8 0-1.2 1.2-1.1 4.7 0.6 10.5-0.1 1-0.1 1.3 0 0.5 0.1 0.5 1z"/>
		<path id="&lt;Path&gt;" class="s5" d="m568.8 455.4q-0.3 3.8-1.2 6.1-0.6 1.5-4.4 2.7-4.2 1.3-9.6 1.3-9.1 0-15-5.3-6.1-5.5-6.1-14 0-8.7 6.3-14.4 6-5.6 14.6-5.6 6 0 10.2 1.5 3.6 1.3 3.8 2.4 0.3 2.1 0.3 7.1 0 0.8-1.5 0.9-1.1 0.1-1.3-0.7-1.6-4.9-4.1-6.8-2.5-1.9-7.6-1.9-6.4 0-10.4 4.2-4.3 4.6-4.3 12.6 0 7.9 4.6 12.8 4.4 4.8 11.4 4.8 4.5 0 7.1-2 2.5-1.9 4.1-6.1 0.5-1.2 2.1-0.9 1.1 0.3 1 1.3z"/>
		<path id="&lt;Path&gt;" class="s5" d="m605.6 457.5q-0.8 3.4-1 6.9-0.1 0.6-1.8 0.5-4.5-0.3-11.4-0.3-7.6 0-13.1 0.3-1.3 0.1-1.2-1-0.1-0.7 1.2-0.8 1.7-0.2 2.2-0.7 0.6-0.6 0.6-2.4v-26.4q0-2.7-0.5-3.4-0.5-0.7-2.7-1.4-1.2-0.3-0.8-1.4 0.1-0.5 0.4-0.6 0.3 0 1.5 0.2 1.9 0.2 9.6 0.2 7.7 0 13.3-0.3 1.8-0.1 1.8 0.3 0 0.1 0 0.2-0.6 2.9-0.5 6.5 0 0.9-0.9 0.9-0.8 0-1.1-0.8-0.8-2-1.4-2.7-0.9-1.1-2.6-1.4-1.4-0.2-9.7-0.2-1 0-1.2 0.3-0.2 0.1-0.2 0.8v12q0 0.7 0.9 0.7 2.6 0 7.5-0.4 0.9 0 1.3-0.8 0.3-0.6 0.6-2.4 0.3-1.2 1.4-0.9 1 0.2 0.8 0.9-0.8 3.9-0.5 10.2 0 0.7-0.9 0.8-0.9 0.1-1-0.9-0.3-2.2-0.8-2.9-0.4-0.7-1.6-0.9-2.4-0.3-7.2-0.3-0.5 0-0.5 0.4v12.5q0 2.7 3.1 3.3 0.8 0.1 5.4 0.1 7.1 0 8.9-4.9 0.4-1.2 1.4-0.8 0.9 0.2 0.7 1z"/>
		<path id="&lt;Path&gt;" class="s5" d="m638.5 454.7q0 4.9-3.5 7.8-3.7 3-10.1 3-8.5 0-9.9-3.1-0.9-1.9-1.8-4.8-0.4-1.4 0.5-1.8 1.2-0.5 1.8 0.5 2.5 3.6 4.9 5.1 2.4 1.5 5.6 1.5 8 0 8-6.4 0-2.5-1.8-4.2-1.7-1.6-7-4.5-6.7-3.6-8.8-5.7-2.6-2.5-2.6-6.3 0-4 3.3-6.8 3.4-2.8 8.5-2.8 3.7 0 7.2 0.9 2.6 0.7 3 1.9 0.7 2.3 0.9 5.7 0.1 1.2-0.8 1.4-1.1 0.1-1.6-0.8-1.7-3.6-4-5-2.1-1.4-5.5-1.4-3 0-4.7 1.4-1.8 1.4-1.8 4 0 2.4 1.7 4.1 1.7 1.7 6 3.9 6.8 3.4 9.4 5.7 3.1 2.9 3.1 6.7z"/>
		<path id="&lt;Compound Path&gt;" fill-rule="evenodd" class="s6" d="m163.6 293.2q-0.2 1-0.4 1.2-0.2 0.1-1-0.1-5.2-0.9-15-0.2-1.9 0.2-2-0.7-0.2-1 1.1-1.6 3.9-1.5 3.9-2.9 0-0.5-0.4-1.5-2.7-6.4-4.4-10.2-2.6 0.1-9 0.1-5.3 0-9-0.3-1.3 3.1-3.5 8.6-0.5 1.3-0.5 2.3 0 2 2.2 2.9 3.3 1.4 3.3 2.2-0.1 1.2-2.3 1-6.7-0.8-12.5 0.4-1.5 0.3-1.7-1.1-0.1-0.9 2.4-2 2.6-1.1 4.5-5.1 6.9-15.2 9-19.9 4.9-11.5 7-18.7 0.2-1.1 2.8-2.1 0.6-0.2 1.5 2.1 7.8 18.6 17.4 39.8 1.5 3.4 5.2 4.5 1.6 0.5 1.4 1.3zm-19.4-18.8q-2.4-5.4-7.4-16.7-0.3-0.6-0.6-0.6-0.4 0-0.6 0.6l-6.9 16.5q3.8 0.3 8.6 0.3 2.9 0 6.9-0.1z"/>
		<path id="&lt;Compound Path&gt;" fill-rule="evenodd" class="s6" d="m219 354.9q0 12.5-8.3 18.9-7.7 6-21.4 6-1.1 0-5.2-0.2-4-0.3-6.2-0.3-3 0-6.5 0.3-1.6 0.2-1.6-1.2 0-1 1.6-1.1 3.5-0.4 3.5-3.8v-34.4q0-1.9-0.8-2.6-0.7-0.5-2.8-1-1.9-0.3-2.3-0.6-0.4-0.2-0.4-1.1-0.1-0.8 0.7-1.1 0.2 0 1.6-0.1 7.7-0.5 20.4-0.5 12.4 0 19.9 5.9 7.8 6.2 7.8 16.9zm-7.5 1q0-20.8-21.4-20.8-5 0-5 0-3.9 0.3-3.9 2.2v33.2q0 3.5 1.8 4.7 1.9 1.2 7.5 1.2 21 0 21-20.5z"/>
		<path id="&lt;Path&gt;" class="s6" d="m260.1 455.8q-1 4.2-1.3 8.5 0 0.7-2.2 0.6-5.6-0.3-14.3-0.3-9.5 0-16.4 0.4-1.5 0.1-1.5-1.3 0-0.9 1.5-1 2.2-0.3 2.8-0.9 0.8-0.7 0.8-3v-33q0-3.3-0.7-4.2-0.6-0.9-3.3-1.7-1.5-0.5-1.1-1.8 0.2-0.6 0.6-0.7 0.3-0.1 1.9 0.1 2.3 0.4 11.9 0.4 9.7 0 16.6-0.4 2.4-0.2 2.4 0.3 0 0.2-0.1 0.3-0.8 3.5-0.7 8.1 0.1 1.1-1 1.1-1 0-1.4-1-1-2.5-1.8-3.4-1.1-1.3-3.3-1.7-1.7-0.3-12.1-0.3-1.2 0-1.5 0.4-0.1 0.2-0.1 1.1v14.9q0 0.9 1 0.9 3.3 0 9.5-0.4 1-0.1 1.5-1.1 0.4-0.7 0.9-2.9 0.3-1.6 1.6-1.2 1.2 0.3 1.1 1.2-1 4.8-0.7 12.6 0.1 0.9-1.2 1.1-1 0.1-1.2-1.2-0.4-2.8-0.9-3.6-0.6-0.9-2.1-1.1-3-0.4-8.9-0.4-0.6 0-0.6 0.5v15.7q0 3.3 3.8 4 1 0.2 6.7 0.2 8.9 0 11.2-6.2 0.5-1.5 1.7-1 1.2 0.3 0.9 1.3z"/>
		<path id="&lt;Compound Path&gt;" fill-rule="evenodd" class="s7" d="m162.1 291.7q-0.2 1-0.4 1.2-0.3 0.1-1.1-0.1-5.1-0.9-14.9-0.2-1.9 0.1-2.1-0.7-0.1-1 1.2-1.6 3.9-1.5 3.9-2.9 0-0.5-0.4-1.5-2.7-6.4-4.5-10.3-2.5 0.2-8.9 0.2-5.3 0-9-0.3-1.3 3.1-3.5 8.6-0.5 1.3-0.5 2.3 0 2 2.1 2.9 3.4 1.4 3.3 2.2 0 1.2-2.2 0.9-6.8-0.7-12.5 0.5-1.5 0.3-1.7-1.1-0.1-0.9 2.4-2 2.6-1.1 4.4-5.1 7-15.2 9.1-19.9 4.9-11.5 6.9-18.7 0.3-1.1 2.9-2.1 0.6-0.2 1.5 2.1 7.7 18.6 17.4 39.8 1.5 3.4 5.1 4.5 1.7 0.5 1.5 1.3zm-19.4-18.9q-2.4-5.3-7.4-16.6-0.3-0.6-0.7-0.6-0.3 0-0.6 0.6l-6.8 16.5q3.8 0.3 8.6 0.3 2.9 0 6.9-0.2z"/>
		<path id="&lt;Compound Path&gt;" fill-rule="evenodd" class="s7" d="m217.5 353.4q0 12.5-8.3 18.9-7.7 5.9-21.4 5.9-1.1 0-5.2-0.2-4-0.2-6.2-0.2-3 0-6.6 0.3-1.5 0.1-1.5-1.2 0-1 1.5-1.1 3.6-0.4 3.6-3.9v-34.3q0-1.9-0.8-2.6-0.7-0.5-2.9-1-1.8-0.4-2.2-0.6-0.4-0.2-0.4-1.1-0.1-0.8 0.7-1.1 0.2 0 1.6-0.1 7.7-0.5 20.4-0.5 12.4 0 19.9 5.9 7.8 6.2 7.8 16.9zm-7.5 1q0-20.8-21.4-20.8-5 0-5 0-3.9 0.3-3.9 2.2v33.2q0 3.5 1.8 4.7 1.9 1.2 7.5 1.2 21 0 21-20.5z"/>
		<path id="&lt;Path&gt;" class="s7" d="m258.6 454.2q-1 4.3-1.3 8.6-0.1 0.7-2.2 0.6-5.6-0.3-14.3-0.3-9.5 0-16.4 0.4-1.5 0-1.5-1.3 0-0.9 1.5-1.1 2.2-0.2 2.8-0.8 0.7-0.7 0.7-3v-33q0-3.3-0.6-4.2-0.6-0.9-3.3-1.7-1.5-0.5-1.1-1.8 0.2-0.7 0.6-0.7 0.3-0.1 1.9 0.1 2.3 0.4 11.9 0.4 9.7 0 16.6-0.5 2.3-0.1 2.3 0.4 0 0.1 0 0.3-0.8 3.5-0.7 8.1 0.1 1.1-1 1.1-1 0-1.4-1-1-2.5-1.8-3.4-1.1-1.3-3.3-1.7-1.7-0.3-12.1-0.3-1.2 0-1.5 0.4-0.2 0.2-0.2 1v15q0 0.9 1.1 0.9 3.3-0.1 9.4-0.4 1.1-0.2 1.6-1.1 0.4-0.7 0.8-3 0.4-1.5 1.7-1.1 1.2 0.2 1.1 1.1-1 4.9-0.7 12.7 0.1 0.9-1.2 1.1-1 0.1-1.2-1.2-0.4-2.8-0.9-3.7-0.6-0.8-2.1-1-3-0.4-8.9-0.4-0.7 0-0.7 0.5v15.6q0 3.4 3.9 4.1 1 0.2 6.7 0.2 8.9 0 11.2-6.2 0.5-1.5 1.7-1 1.2 0.3 0.9 1.3z"/>
		<path id="&lt;Compound Path&gt;" fill-rule="evenodd" class="s7" d="m208.1 272.9q0 10-6.6 15.1-6.2 4.8-17.1 4.8-0.9 0-4.2-0.2-3.2-0.1-5-0.2-2.3 0-5.2 0.3-1.2 0.1-1.2-1 0-0.8 1.2-0.9 2.8-0.3 2.8-3v-27.5q0-1.6-0.6-2.1-0.5-0.4-2.3-0.8-1.4-0.3-1.7-0.5-0.4-0.2-0.4-0.9-0.1-0.6 0.6-0.8 0.1-0.1 1.2-0.2 6.2-0.3 16.4-0.3 9.9-0.1 15.9 4.7 6.2 4.9 6.2 13.5zm-6 0.8q0-16.6-17.1-16.6-4 0-4 0-3.1 0.2-3.1 1.7v26.6q0 2.8 1.5 3.7 1.5 1 5.9 1 16.8 0 16.8-16.4z"/>
		<path id="&lt;Path&gt;" class="s7" d="m257.2 255.7q0 0.6-1.3 0.9-2.2 0.5-2.8 1-0.8 0.7-0.8 2.7v16.4q0 7.9-4.1 12.2-4.2 4.4-12.2 4.4-16.9 0-16.9-15.9v-17.2q0-2.7-3.2-3.3-1.1-0.2-1.3-0.4-0.3-0.2-0.3-0.7 0-0.9 0.5-1 0.1-0.1 1.3 0 7.7 0.4 11.8 0 0.8-0.1 1 0 0.2 0.2 0.2 1 0 0.6-1.2 0.9-2.4 0.5-2.8 0.8-0.9 0.5-0.9 2.3v16.6q0 7.3 3 10.7 3.1 3.4 9.8 3.4 11.5 0 11.5-13.3v-16.5q0-1.9-1-2.8-0.8-0.8-2.8-1.1-1.6-0.3-1.6-1.1 0-0.9 0.5-1 0.2-0.1 1.4 0 7.9 0.3 10.9 0 1.2-0.2 1.3 0.4 0 0.2 0 0.6z"/>
		<path id="&lt;Path&gt;" class="s7" d="m291.8 285.3q-0.9 3.7-0.9 6.9 0 0.5-1.9 0.4-4.5-0.2-11.2-0.2-7.1 0-12.6 0.3-0.9 0-1.1-0.2-0.2-0.1-0.2-0.8 0-0.8 1.3-0.9 2.8-0.3 2.8-3v-26.4q0-2.1-0.6-3-0.6-1.2-2.5-1.8-1.1-0.4-1-1.3 0.1-0.6 0.4-0.7 0.3-0.2 1.5 0 4.2 0.4 10-0.1 1 0 1.1 0 0.6 0.1 0.7 0.8 0.1 0.7-0.4 1-0.1 0.1-1.2 0.4-2 0.4-2.5 1-0.5 0.6-0.5 2.5v25.6q0 2.4 1.6 3.3 1.6 0.9 5.9 0.9 4.1 0 6.1-1.1 1.9-1 3.1-3.9 0.5-1.2 1.4-0.8 1 0.3 0.7 1.1z"/>
		<path id="&lt;Path&gt;" class="s7" d="m333.8 263.9q0 0.5-0.1 0.7-0.1 0.2-0.6 0.3-1 0.2-1.4-0.9-1.2-3.8-2.9-5-2.4-1.8-8.2-1.8-2.4 0-2.6 0.5-0.1 0.2-0.1 0.5v28.6q0 1.8 0.8 2.6 0.9 0.7 3.4 1.3 1.1 0.2 1.3 0.3 0.4 0.3 0.2 1.1 0 0.7-0.6 0.7 0 0.1-1.1-0.1-7.6-0.6-12.5 0-1.2 0.1-1.6 0-0.2-0.2-0.3-0.7-0.3-0.9 1-1.2 2.4-0.7 3.3-1.6 1-1 1-3.2v-27.8q0-0.8-1.1-0.9-0.1-0.1-1.7-0.1-5.4 0-8 1.9-1.9 1.4-3.5 5.2-0.4 1.2-1.3 0.7-1-0.2-0.7-1 1-3.1 1-8.7 0-0.7 1.7-0.6 6.2 0.4 13.7 0.4 14.2 0 18.5-0.6 1.6-0.2 1.7 0.5 0.8 3.9 0.7 8.9z"/>
		<path id="&lt;Compound Path&gt;" fill-rule="evenodd" class="s7" d="m264.9 377.2q-0.1 0.8-0.3 1-0.2 0.1-0.8-0.1-4.1-0.7-12-0.2-1.5 0.2-1.6-0.5-0.2-0.8 0.9-1.3 3.1-1.2 3.1-2.3 0-0.5-0.3-1.3-2.2-5-3.6-8.1-2 0.1-7.1 0.1-4.3 0-7.3-0.2-1 2.4-2.8 6.8-0.4 1-0.4 1.9 0 1.5 1.8 2.3 2.7 1.1 2.6 1.7 0 1-1.8 0.8-5.4-0.6-10 0.4-1.2 0.2-1.3-0.9-0.1-0.8 1.9-1.6 2.1-0.9 3.5-4.1 5.6-12.1 7.3-15.9 3.9-9.2 5.6-15 0.2-0.9 2.2-1.6 0.5-0.2 1.2 1.6 6.2 14.9 13.9 31.9 1.2 2.7 4.2 3.6 1.3 0.4 1.1 1zm-15.5-15.1q-1.9-4.3-5.9-13.3-0.2-0.5-0.5-0.5-0.3 0-0.5 0.5l-5.5 13.2q3.1 0.3 6.9 0.3 2.3 0 5.5-0.2z"/>
		<path id="&lt;Path&gt;" class="s7" d="m310.3 340.9q0 0.9-1.9 1.5-2 0.6-4.6 3.9-5 6.5-6.2 8.2-2.9 3.9-5.1 7.5v10.2q0 2 0.8 2.8 0.6 0.5 2.9 1.1 1.7 0.3 1.5 1.4-0.1 0.6-0.7 0.7 0 0-1.2-0.1-5.7-0.5-11.2 0-1.7 0.3-1.9-0.7-0.1-1 1-1.3 2.4-0.6 3.1-1.5 0.7-0.9 0.7-3.2v-7.9q-3.9-7.6-12.9-18.2-2.3-2.7-4.7-3.2-1.4-0.3-1.4-0.9 0-1.3 1.2-1.1 5.2 0.6 12.6-0.5 1.1-0.2 1.3-0.2 0.5 0.2 0.5 1 0 0.7-1.5 1.2-2.5 0.9-2.5 2 0 0.6 0.6 1.4 3.7 4.9 9.6 14 0.3 0.5 0.5 0.5 0.2 0 0.6-0.5 1.2-1.9 4.3-6.2 3-4.3 4.5-6.6 0.8-1.1 0.8-1.9 0-1.5-2.6-2.3-1.4-0.5-1.3-1.4 0.1-1 1.9-0.7 5.6 0.6 10 0.1 1.3-0.2 1.3 0.9z"/>
		<path id="&lt;Path&gt;" class="s7" d="m305.3 462.2q-0.1 1.3-1.2 1.1-5.2-0.8-11.8 0-1 0.1-1.2 0-0.5-0.2-0.4-1 0-0.7 1.4-1.2 1.4-0.4 1.4-1.6 0-0.7-0.5-1.4-4-5.3-8.2-11.2-5.9 7.1-7.6 10-0.8 1.2-0.7 2.2 0 1.4 1.7 2 1.2 0.5 1.1 1.4 0 1-1.8 0.8-5.2-0.7-10-0.2-0.8 0.1-1 0-0.2-0.2-0.2-0.9 0-0.9 1.7-1.5 2.7-0.8 5.2-3.9 1.2-1.5 10.2-12-3.7-5.2-5-7.1-3-4.1-5.2-6.7-2.1-2.5-5.3-3.3-1.4-0.3-1.4-0.8 0-1.2 1.2-1.1 5 0.5 11.8-0.6 1-0.1 1.2-0.1 0.5 0.2 0.5 1 0 0.7-1.4 1.2-1.6 0.6-1.6 1.6 0 0.7 0.8 1.8 4.6 6.3 7.3 10.4 6-7.2 7.1-9.5 0.7-1.3 0.7-2.2 0-1.5-1.6-2.1-1.3-0.5-1.2-1.3 0-1 1.7-0.8 5.7 0.7 10.2 0.1 1.2-0.1 1.2 0.9 0 0.9-1.9 1.7-2.9 1.1-5.1 3.8-5.7 6.9-9.5 11.6 6 8.9 10.9 14.5 2.6 2.8 5.2 3.6 1.3 0.3 1.3 0.8z"/>
		<path id="&lt;Compound Path&gt;" fill-rule="evenodd" class="s7" d="m340.8 436q0 5.4-4.5 8.6-4.2 2.9-11 2.9-0.5 0-1.8-0.1-1.3-0.1-1.4-0.1-0.3 0-0.3 0.9v10.3q0 1.3 0.5 1.7 0.6 0.4 3.1 0.9 1.5 0.3 1.5 1.1 0 0.7-0.2 0.9-0.3 0.1-1.5 0.1-5.1-0.2-11.3 0.2-1.2 0.1-1.2-1 0-0.7 1.2-0.9 2.8-0.2 2.8-3v-27.5q0-2.7-3.1-3.3-1.6-0.3-1.6-1 0-0.9 0.4-1.1 0.3-0.1 1.3 0.1 1.4 0.2 3.8 0.2 1.3 0 4.6-0.1 3.3-0.1 5.3-0.1 6.1 0 9.7 2.6 3.7 2.7 3.7 7.7zm-5.6 0.6q0-5-2.3-7-2.2-1.9-7.5-1.9-2.1 0-2.9 0.6-0.7 0.6-0.7 2.5v13.7q0 0.8 3.8 0.8 4.4 0 7-2.2 2.6-2.3 2.6-6.5z"/>
		<path id="&lt;Path&gt;" class="s7" d="m376.3 456q-0.8 3.4-1 6.9-0.1 0.5-1.8 0.5-4.5-0.3-11.4-0.3-7.6 0-13.1 0.3-1.3 0.1-1.3-1 0-0.7 1.3-0.9 1.7-0.2 2.2-0.6 0.6-0.6 0.6-2.4v-26.4q0-2.7-0.5-3.4-0.5-0.7-2.7-1.4-1.2-0.3-0.9-1.4 0.2-0.5 0.5-0.6 0.3-0.1 1.5 0.1 1.8 0.3 9.6 0.3 7.7 0 13.3-0.3 1.8-0.1 1.8 0.3 0 0.1 0 0.2-0.6 2.8-0.5 6.5 0 0.9-0.9 0.9-0.8 0-1.1-0.8-0.8-2-1.4-2.7-0.9-1.1-2.6-1.4-1.4-0.3-9.7-0.3-1 0-1.2 0.4-0.2 0.1-0.2 0.8v12q0 0.7 0.9 0.7 2.6 0 7.5-0.4 0.9 0 1.3-0.8 0.3-0.6 0.6-2.4 0.3-1.2 1.4-0.9 1 0.2 0.8 0.9-0.8 3.9-0.5 10.2 0 0.7-0.9 0.8-0.9 0.1-1-0.9-0.3-2.2-0.8-3-0.4-0.7-1.7-0.8-2.3-0.3-7.1-0.3-0.5 0-0.5 0.4v12.5q0 2.7 3.1 3.3 0.8 0.1 5.4 0.1 7.1 0 8.9-5 0.4-1.1 1.4-0.7 0.9 0.2 0.7 1z"/>
		<path id="&lt;Compound Path&gt;" fill-rule="evenodd" class="s7" d="m417.4 463.3q0 0.6-1.1 0.6-10.3 0-19.4-17.6-3.6 0.2-3.8 0.1v12.1q0 1.3 0.7 1.8 0.6 0.4 2.9 0.8 1.6 0.2 1.6 1.1 0 0.7-0.3 0.9-0.3 0.1-1.4 0.1-5.2-0.2-11.4 0.2-1.2 0.1-1.2-1 0-0.7 1.2-0.9 2.9-0.2 2.9-3v-27.5q0-2.7-3.2-3.3-1.6-0.3-1.6-1 0-1.1 1.1-1.1 0.3 0 0.7 0.1 1.1 0.1 3.5 0.1 0.8 0 4.1 0 3.2-0.1 6-0.1 5.7 0 9 2.1 3.8 2.4 3.8 7 0 8-9.2 10.5 2.9 6.7 6.9 11.4 4 4.9 7.3 5.4 0.8 0.2 0.9 1.1zm-11.5-27.7q0-4.2-2.2-6-2.2-1.8-7-1.8-2.1 0-2.9 0.6-0.7 0.6-0.7 2.5v13.5q6.9-0.2 10-2.4 2.8-2.1 2.8-6.4z"/>
		<path id="&lt;Path&gt;" class="s7" d="m437.2 426.1q0 0.7-1.6 1.2-3.4 1-3.4 2.7v27.9q0 2.7 3.2 3.2 1.5 0.3 1.5 1.1 0 0.8-0.2 0.9-0.3 0.2-1.5 0.1-7.6-0.3-11.7 0-1.1 0.1-1.3-0.4 0-0.2 0-0.6 0-0.5 1.3-0.8 2.4-0.6 2.8-0.8 0.9-0.6 0.9-2.3v-28.1q0-2.4-3.2-3-1.4-0.2-1.4-0.8 0-0.8 0.2-1 0.3-0.2 1.1-0.1 5.5 0.6 11.5-0.1 1.1-0.2 1.3-0.1 0.5 0.1 0.5 1z"/>
		<path id="&lt;Path&gt;" class="s7" d="m474 456q-0.8 3.4-1 6.9-0.1 0.5-1.8 0.5-4.4-0.3-11.4-0.3-7.6 0-13.1 0.3-1.2 0.1-1.2-1 0-0.7 1.2-0.9 1.7-0.2 2.2-0.6 0.6-0.6 0.6-2.4v-26.4q0-2.7-0.5-3.4-0.5-0.7-2.7-1.4-1.2-0.3-0.8-1.4 0.1-0.5 0.4-0.6 0.3-0.1 1.5 0.1 1.9 0.3 9.6 0.3 7.7 0 13.3-0.3 1.8-0.1 1.8 0.3 0 0.1 0 0.2-0.6 2.8-0.5 6.5 0 0.9-0.9 0.9-0.8 0-1.1-0.8-0.8-2-1.4-2.7-0.9-1.1-2.6-1.4-1.4-0.3-9.7-0.3-1 0-1.2 0.4-0.2 0.1-0.1 0.8v12q-0.1 0.7 0.8 0.7 2.6 0 7.5-0.4 0.9 0 1.3-0.8 0.3-0.6 0.7-2.4 0.2-1.2 1.3-0.9 1 0.2 0.8 0.9-0.8 3.9-0.5 10.2 0.1 0.7-0.9 0.8-0.9 0.1-1-0.9-0.3-2.2-0.8-3-0.4-0.7-1.6-0.8-2.4-0.3-7.1-0.3-0.5 0-0.5 0.4v12.5q-0.1 2.7 3 3.3 0.8 0.1 5.4 0.1 7.1 0 8.9-5 0.4-1.1 1.4-0.7 0.9 0.2 0.7 1z"/>
		<path id="&lt;Path&gt;" class="s7" d="m524.7 426q0 0.8-1.6 1.2-3.4 1-3.4 4v20.6q0 6.5 0.2 10.5 0 1.5-0.7 1.7-1.3 0.3-2.2-1.3-1.4-2.8-11.2-13.4-8.2-9-15.9-16.7-0.3-0.2-0.5-0.1-0.3 0.1-0.3 0.6v23.5q0 3.8 3.8 4.5 1.6 0.3 1.6 1.1 0 1.1-1.8 1-6.8-0.2-10.6 0-1.2 0.1-1.2-1 0-0.6 1.2-0.8 2.2-0.5 2.9-1.4 0.8-0.9 0.8-3v-25.4q0-1.7-0.7-2.5-0.7-0.8-2.6-1.7-1.4-0.7-1.3-1.4 0.1-0.7 1.3-0.6 3.7 0.6 6.4 0.3 1.4-0.2 2.6 1l24 25.6q0.5 0.6 0.6 0.6 0.3 0 0.3-0.8v-20.7q0-3.7-3.9-4.3-1.3-0.3-1.3-0.8 0-1.2 1.2-1.1 4.7 0.5 10.5-0.1 1-0.1 1.3 0 0.5 0.1 0.5 0.9z"/>
		<path id="&lt;Path&gt;" class="s7" d="m567.3 453.8q-0.4 3.9-1.2 6.2-0.6 1.5-4.4 2.7-4.2 1.3-9.7 1.3-9 0-15-5.3-6-5.5-6-14 0-8.7 6.2-14.4 6.1-5.6 14.7-5.6 6 0 10.2 1.5 3.6 1.3 3.8 2.4 0.3 2.1 0.3 7.1 0 0.7-1.5 0.9-1.1 0.1-1.4-0.7-1.5-4.9-4-6.8-2.5-1.9-7.6-1.9-6.4 0-10.4 4.2-4.3 4.6-4.3 12.6 0 7.9 4.5 12.8 4.5 4.8 11.5 4.7 4.5 0 7.1-1.9 2.5-1.9 4.1-6.1 0.4-1.2 2-0.9 1.2 0.3 1.1 1.2z"/>
		<path id="&lt;Path&gt;" class="s7" d="m604.1 456q-0.8 3.4-1.1 6.9 0 0.5-1.7 0.5-4.5-0.3-11.4-0.3-7.6 0-13.1 0.3-1.3 0.1-1.3-1 0-0.7 1.3-0.9 1.7-0.2 2.2-0.6 0.6-0.6 0.6-2.4v-26.4q0-2.7-0.5-3.4-0.5-0.7-2.7-1.4-1.2-0.3-0.9-1.4 0.2-0.5 0.5-0.6 0.3-0.1 1.5 0.1 1.8 0.3 9.6 0.3 7.7 0 13.2-0.3 1.9-0.1 1.9 0.3 0 0.1 0 0.2-0.6 2.8-0.6 6.5 0.1 0.9-0.8 0.9-0.8 0-1.1-0.8-0.8-2-1.4-2.7-0.9-1.1-2.6-1.4-1.4-0.3-9.7-0.3-1 0-1.2 0.4-0.2 0.1-0.2 0.8v12q0 0.7 0.9 0.7 2.6 0 7.5-0.4 0.9 0 1.3-0.8 0.3-0.6 0.6-2.4 0.3-1.2 1.4-0.9 1 0.2 0.8 0.9-0.8 3.9-0.5 10.2 0 0.7-0.9 0.8-0.9 0.1-1.1-0.9-0.2-2.2-0.7-3-0.4-0.7-1.7-0.8-2.3-0.3-7.1-0.3-0.5 0-0.5 0.4v12.5q0 2.7 3.1 3.3 0.8 0.1 5.4 0.1 7.1 0 8.9-5 0.4-1.1 1.4-0.7 0.9 0.2 0.7 1z"/>
		<path id="&lt;Path&gt;" class="s7" d="m637 453.2q0 4.9-3.5 7.8-3.7 3-10.1 3-8.5 0-10-3.1-0.8-1.9-1.7-4.8-0.4-1.4 0.5-1.8 1.2-0.5 1.8 0.5 2.4 3.6 4.9 5.1 2.4 1.5 5.6 1.5 7.9 0 7.9-6.4 0-2.5-1.7-4.2-1.7-1.7-7-4.5-6.7-3.6-8.8-5.7-2.6-2.5-2.6-6.3 0-4 3.3-6.8 3.4-2.8 8.5-2.8 3.7 0 7.2 0.9 2.6 0.7 3 1.8 0.7 2.4 0.9 5.8 0.1 1.2-0.8 1.4-1.1 0.1-1.6-0.8-1.8-3.6-4-5.1-2.1-1.3-5.5-1.3-3 0-4.8 1.4-1.7 1.4-1.7 4 0 2.4 1.7 4.1 1.6 1.7 6 3.9 6.8 3.4 9.3 5.7 3.2 2.9 3.2 6.7z"/>
		<path id="&lt;Compound Path&gt;" fill-rule="evenodd" class="s8" d="m162.1 291.7q-0.2 1-0.4 1.2-0.3 0.1-1.1-0.1-5.1-0.9-14.9-0.2-1.9 0.1-2.1-0.7-0.1-1 1.2-1.6 3.9-1.5 3.9-2.9 0-0.5-0.4-1.5-2.7-6.4-4.5-10.3-2.5 0.2-8.9 0.2-5.3 0-9-0.3-1.3 3.1-3.5 8.6-0.5 1.3-0.5 2.3 0 2 2.1 2.9 3.4 1.4 3.3 2.2 0 1.2-2.2 0.9-6.8-0.7-12.5 0.5-1.5 0.3-1.7-1.1-0.1-0.9 2.4-2 2.6-1.1 4.4-5.1 7-15.2 9.1-19.9 4.9-11.5 6.9-18.7 0.3-1.1 2.9-2.1 0.6-0.2 1.5 2.1 7.7 18.6 17.4 39.8 1.5 3.4 5.1 4.5 1.7 0.5 1.5 1.3zm-19.4-18.9q-2.4-5.3-7.4-16.6-0.3-0.6-0.7-0.6-0.3 0-0.6 0.6l-6.8 16.5q3.8 0.3 8.6 0.3 2.9 0 6.9-0.2z"/>
		<path id="&lt;Compound Path&gt;" fill-rule="evenodd" class="s8" d="m217.5 353.4q0 12.5-8.3 18.9-7.7 5.9-21.4 5.9-1.1 0-5.2-0.2-4-0.2-6.2-0.2-3 0-6.6 0.3-1.5 0.1-1.5-1.2 0-1 1.5-1.1 3.6-0.4 3.6-3.9v-34.3q0-1.9-0.8-2.6-0.7-0.5-2.9-1-1.8-0.4-2.2-0.6-0.4-0.2-0.4-1.1-0.1-0.8 0.7-1.1 0.2 0 1.6-0.1 7.7-0.5 20.4-0.5 12.4 0 19.9 5.9 7.8 6.2 7.8 16.9zm-7.5 1q0-20.8-21.4-20.8-5 0-5 0-3.9 0.3-3.9 2.2v33.2q0 3.5 1.8 4.7 1.9 1.2 7.5 1.2 21 0 21-20.5z"/>
		<path id="&lt;Path&gt;" class="s8" d="m258.6 454.2q-1 4.3-1.3 8.6-0.1 0.7-2.2 0.6-5.6-0.3-14.3-0.3-9.5 0-16.4 0.4-1.5 0-1.5-1.3 0-0.9 1.5-1.1 2.2-0.2 2.8-0.8 0.7-0.7 0.7-3v-33q0-3.3-0.6-4.2-0.6-0.9-3.3-1.7-1.5-0.5-1.1-1.8 0.2-0.7 0.6-0.7 0.3-0.1 1.9 0.1 2.3 0.4 11.9 0.4 9.7 0 16.6-0.5 2.3-0.1 2.3 0.4 0 0.1 0 0.3-0.8 3.5-0.7 8.1 0.1 1.1-1 1.1-1 0-1.4-1-1-2.5-1.8-3.4-1.1-1.3-3.3-1.7-1.7-0.3-12.1-0.3-1.2 0-1.5 0.4-0.2 0.2-0.2 1v15q0 0.9 1.1 0.9 3.3-0.1 9.4-0.4 1.1-0.2 1.6-1.1 0.4-0.7 0.8-3 0.4-1.5 1.7-1.1 1.2 0.2 1.1 1.1-1 4.9-0.7 12.7 0.1 0.9-1.2 1.1-1 0.1-1.2-1.2-0.4-2.8-0.9-3.7-0.6-0.8-2.1-1-3-0.4-8.9-0.4-0.7 0-0.7 0.5v15.6q0 3.4 3.9 4.1 1 0.2 6.7 0.2 8.9 0 11.2-6.2 0.5-1.5 1.7-1 1.2 0.3 0.9 1.3z"/>
	</g>
</svg>